<svg viewBox="0 0 12 8" fill="none" xmlns="http://www.w3.org/2000/svg">
  <path d="M9.34615 3.28133L7.15385 1.23209C7 1.08828 6.78205 1.00885 6.55769 1.01677C6.33333 1.02469 6.12179 1.11923 5.97949 1.27318C5.83718 1.42713 5.77564 1.63077 5.81282 1.83077C5.85 2.03077 5.98205 2.20513 6.16923 2.31436L7.35385 3.28133H1.38462C1.01795 3.28133 0.666667 3.42564 0.406838 3.68547C0.147009 3.9453 0 4.29641 0 4.66308C0 5.02974 0.147009 5.38085 0.406838 5.64068C0.666667 5.90051 1.01795 6.04482 1.38462 6.04482H7.35385L6.16923 7.01179C5.98205 7.12103 5.85 7.29538 5.81282 7.49538C5.77564 7.69538 5.83718 7.89902 5.97949 8.05297C6.12179 8.20692 6.33333 8.30146 6.55769 8.30938C6.78205 8.3173 7 8.23787 7.15385 8.09405L11.5934 4.66308L7.15385 1.23209C7 1.08828 6.78205 1.00885 6.55769 1.01677Z" fill="currentColor"/>
</svg>